<svg xmlns="http://www.w3.org/2000/svg" width="37" height="35" viewBox="0 0 37 35">
    <g fill="#3A3091" fill-rule="nonzero">
        <path d="M36.782 14.531c0-.031.031-.031.031-.062s.032-.031.032-.063c0-.031 0-.031.03-.062v-.063-.062-.031-.094-.031c0-.032 0-.063-.03-.094v-.031c0-.032-.032-.063-.032-.094v-.031c0-.032-.03-.032-.03-.032 0-.031-.032-.031-.032-.062L29.6 6.656l-.031-.031-.031-.031h-.031c-.031 0-.031-.032-.062-.032-.032 0-.032-.03-.063-.03-.03 0-.03 0-.062-.032-.03 0-.03 0-.062-.031H7.835c-.03 0-.03 0-.062.031-.031 0-.031 0-.062.031-.031 0-.031.032-.062.032s-.031.03-.062.03l-.032.032-.03.031L.372 13.72s-.031.031-.031.062l-.031.031v.032c-.031.031-.031.062-.031.094v.03c0 .032-.031.063-.031.095v.281c0 .031 0 .031.03.062 0 .031.032.031.032.063 0 .031.031.031.031.062s.031.031.031.063c0 0 0 .031.031.031l17.723 20 .062.063c.062.03.093.062.156.093h.03a.393.393 0 0 0 .187.032c.062 0 .125 0 .187-.032h.03c.063-.031.094-.062.156-.093l.031-.032c.031-.031.063-.031.063-.062l17.722-20s0-.031.031-.031c-.03 0 0 0 0-.032zM7.866 8.094l3.918 5.5H2.301l5.565-5.5zm11.909-.344h8.084l-4.042 5.406-4.042-5.406zm2.798 5.813h-8.302L18.5 8.125l4.073 5.438zm-9.576-.407L9.14 7.75h8.084l-4.228 5.406zm-.467 1.656l4.695 16.97-15.017-16.97H12.53zm10.199 3.563c-.342-.094-.684.125-.747.438l-3.45 13.03-4.696-17h21.05l-15.08 17 3.358-12.718c.093-.313-.125-.656-.435-.75zm2.332-4.813l4.104-5.5 5.565 5.5h-9.67z"/>
        <path d="M23.32 17.531c.03 0 .062-.031.093-.062.03-.032.062-.063.093-.063a.619.619 0 0 0 .186-.437.619.619 0 0 0-.186-.438c-.031-.031-.062-.062-.093-.062-.031-.032-.063-.032-.094-.063-.03 0-.062-.031-.124-.031h-.249c-.03 0-.093.031-.124.031-.031.032-.062.032-.093.063-.032.031-.063.031-.094.062a.619.619 0 0 0-.186.438c0 .156.062.312.186.437.031.032.062.063.094.063.03.031.062.031.093.062.03.032.062.032.124.032h.249c.062 0 .093 0 .124-.032zM18.407.094a.625.625 0 0 0-.622.625V3.78c0 .344.28.625.622.625a.625.625 0 0 0 .622-.625V.72a.625.625 0 0 0-.622-.625zM9.483 1.938a.606.606 0 0 0 0 .875l2.146 2.156c.124.125.28.187.435.187.155 0 .31-.062.435-.187a.606.606 0 0 0 0-.875l-2.145-2.157c-.218-.25-.622-.25-.87 0zM26.46 1.938l-2.146 2.156a.606.606 0 0 0 0 .875c.125.125.28.187.436.187.155 0 .31-.062.435-.187l2.145-2.157a.606.606 0 0 0 0-.874c-.217-.25-.622-.25-.87 0z"/>
    </g>
</svg>
