<svg xmlns="http://www.w3.org/2000/svg" width="36" height="30" viewBox="0 0 36 30">
    <g fill="#3A3091" fill-rule="nonzero">
        <path d="M25.355 8.483v-3.57h5.05c.208 0 .39-.129.467-.31a.52.52 0 0 0-.104-.569l-1.502-1.577L30.768.879a.563.563 0 0 0 .104-.569.512.512 0 0 0-.466-.31h-5.569a.52.52 0 0 0-.518.517v7.94L18.7 20.534l-5.024-8.637a.534.534 0 0 0-.44-.26.501.501 0 0 0-.44.26L2.693 29.224a.47.47 0 0 0 0 .517.534.534 0 0 0 .44.259H35.249a.577.577 0 0 0 .44-.233.48.48 0 0 0 .026-.491L25.355 8.483zm-.518 1.293l2.875 5.767-1.217 1.32-1.295-1.397a.527.527 0 0 0-.388-.156.527.527 0 0 0-.389.156l-1.295 1.396-1.062-1.138 2.771-5.948zm3.341-6.957l1.01 1.06h-3.833V1.034h3.833l-1.01 1.06a.55.55 0 0 0 0 .725zm-14.97 10.397l2.746 4.706-1.062 1.164-1.295-1.396c-.207-.207-.57-.207-.751 0l-1.295 1.396-1.062-1.164 2.72-4.706zM4.04 28.966l5.88-10.113 1.243 1.32c.207.206.57.206.75 0l1.296-1.397 1.295 1.396a.527.527 0 0 0 .388.156.527.527 0 0 0 .389-.156l1.243-1.319 1.787 3.078 4.092 7.035H4.04zm19.554 0l-4.273-7.32 2.305-4.94 1.165 1.242a.527.527 0 0 0 .389.155.527.527 0 0 0 .388-.155l1.295-1.396 1.295 1.396a.527.527 0 0 0 .389.155.527.527 0 0 0 .388-.155l1.321-1.422 6.216 12.44H23.594z"/>
        <path d="M14.555 26.38a.52.52 0 0 0-.518.517.52.52 0 0 0 .518.517h3.937a.52.52 0 0 0 .518-.517.52.52 0 0 0-.518-.518h-3.937zM12.717 26.716c0-.026-.026-.052-.052-.104-.026-.026-.052-.052-.052-.078a.501.501 0 0 0-.725 0c-.026.026-.052.052-.052.078-.026.026-.026.052-.052.104-.026.025-.026.051-.026.103v.207c0 .026.026.077.026.103 0 .026.026.052.052.078.026.026.052.052.052.077.026.026.052.052.077.052.026.026.052.026.104.052.026.026.052.026.104.026h.103c.13 0 .26-.052.363-.155.026-.026.052-.052.052-.078.026-.026.026-.052.051-.078.026-.025.026-.051.026-.103v-.103-.104c-.026-.026-.051-.052-.051-.077zM27.246 26.38a.52.52 0 0 0-.518.517.52.52 0 0 0 .518.517h3.937a.52.52 0 0 0 .518-.517.52.52 0 0 0-.518-.518h-3.937zM24.553 26.534a.51.51 0 0 0-.156.363c0 .129.052.258.156.362.025.025.051.051.077.051.026.026.052.026.104.052.026.026.052.026.103.026h.104c.13 0 .259-.052.363-.155a.51.51 0 0 0 .155-.362.51.51 0 0 0-.155-.362.623.623 0 0 0-.751.025zM2.9 11.664h6.424a2.17 2.17 0 0 0 2.175-2.173c0-1.06-.75-1.94-1.735-2.146v-.181a3.347 3.347 0 0 0-3.341-3.336c-1.45 0-2.72.956-3.16 2.301-.13-.026-.259-.026-.388-.026A2.772 2.772 0 0 0 .104 8.871c0 1.526 1.269 2.793 2.797 2.793zm0-4.526c.208 0 .39.026.596.103.156.052.311.026.44-.051.13-.078.234-.207.234-.362.155-1.112 1.14-1.966 2.279-1.966a2.308 2.308 0 0 1 2.305 2.302c0 .18-.026.362-.078.543a.599.599 0 0 0 .104.465c.103.13.259.181.44.181h.104c.647 0 1.14.518 1.14 1.138 0 .621-.519 1.138-1.14 1.138H2.9a1.734 1.734 0 0 1-1.736-1.732c0-.957.777-1.76 1.736-1.76z"/>
    </g>
</svg>
